# This file uses centimeters as units for non-parametric coordinates.

mtllib box_lowpoly.mtl
g default
v -9.504045 1.383323 3.210351
v -9.192804 1.412215 -0.212280
v -5.733426 1.354572 0.101818
v -6.044674 1.325686 3.524450
v -9.358069 10.640392 3.301737
v -9.048925 10.535487 -0.122209
v -5.589550 10.477837 0.191889
v -5.898686 10.582736 3.615843
v -6.069010 0.535400 3.235836
v -5.898556 11.344183 3.342549
v -5.805103 0.559892 0.333806
v -5.634658 11.368689 0.440517
v -9.041425 0.613822 0.039961
v -8.870966 11.422632 0.146675
v -9.134861 11.398136 3.048704
v -9.305310 0.589338 2.941994
v -5.969331 0.191496 2.486374
v -9.428697 0.249158 2.172275
v -5.838596 0.203636 1.048868
v -9.297973 0.261279 0.734771
v -5.789096 11.619969 2.599206
v -9.248475 11.677630 2.285111
v -5.665530 11.631442 1.240383
v -9.124907 11.689092 0.926285
v -6.062782 1.324001 3.723614
v -9.522160 1.381652 3.409517
v -9.431855 0.049186 2.170305
v -5.972477 -0.008467 2.484402
v -9.174689 1.413898 -0.411452
v -5.715311 1.356249 -0.097352
v -5.841748 0.003668 1.046895
v -9.301128 0.061316 0.732795
v -5.785938 11.819915 2.601181
v -9.245324 11.877587 2.287082
v -9.376176 10.638713 3.500916
v -5.916800 10.581060 3.815007
v -5.571441 10.479499 -0.007285
v -9.030822 10.537165 -0.321382
v -9.121752 11.889057 0.928258
v -5.662371 11.831404 1.242357
v -9.603623 1.385003 3.201312
v -9.292380 1.413880 -0.221322
v -9.310406 0.271037 -0.232604
v -9.397543 0.262950 0.725732
v -9.528275 0.250821 2.163236
v -9.621641 0.242152 3.190030
v -9.457637 10.642049 3.292704
v -9.148508 10.537164 -0.131251
v -9.130178 11.699500 -0.119776
v -9.441412 11.670592 3.302855
v -9.348046 11.679285 2.276064
v -9.224478 11.690756 0.917243
v -8.477348 1.366217 3.303568
v -8.338257 10.618832 3.579350
v -8.166105 1.395101 -0.119060
v -8.022228 10.518386 -0.028987
v -8.495462 1.364540 3.502742
v -8.008289 10.517196 -0.228567
v -8.151259 1.396841 -0.318529
v -9.571843 0.241322 3.194551
v -9.542226 0.109526 3.396959
v -9.536919 0.039435 3.325854
v -6.059229 0.222196 3.482526
v -6.082842 0.051878 3.711060
v -6.077550 -0.018214 3.639952
v -5.753397 0.252456 0.119444
v -5.735373 0.084130 -0.109914
v -5.742905 0.012833 -0.040204
v -9.260608 0.270198 -0.228085
v -9.194742 0.141779 -0.424009
v -9.202264 0.070496 -0.354300
v -9.391622 11.669785 3.307372
v -9.350403 11.867839 3.442627
v -9.357921 11.796552 3.512341
v -5.879759 11.576807 3.589906
v -5.891030 11.810182 3.756725
v -5.898541 11.738896 3.826438
v -5.574842 11.602824 0.236388
v -5.551075 11.771144 0.005470
v -5.556367 11.841236 0.076576
v -9.080386 11.698670 -0.115256
v -9.010451 11.828771 -0.308630
v -9.015744 11.898893 -0.237523
v -8.317985 10.616910 3.357444
vt 0.424972 0.463597
vt 0.403013 0.492545
vt 0.390583 0.482678
vt 0.830045 0.575469
vt 0.688825 0.575985
vt 0.728195 0.528874
vt 0.787507 0.528657
vt 0.831432 0.955904
vt 0.690193 0.950924
vt 0.937572 0.377480
vt 0.937549 0.750124
vt 0.838525 0.752328
vt 0.838555 0.375251
vt 0.317594 0.581931
vt 0.014355 0.908560
vt 0.026952 0.878085
vt 0.288130 0.603716
vt 0.059019 0.244760
vt 0.057798 0.627977
vt 0.014850 0.626487
vt 0.016384 0.245817
vt 0.789222 0.998331
vt 0.831589 0.998173
vt 0.421043 0.000271
vt 0.421043 0.444480
vt 0.301303 0.444480
vt 0.301303 0.000272
vt 0.693120 0.205131
vt 0.726549 0.182790
vt 0.817127 0.281800
vt 0.497142 0.587649
vt 0.819240 0.103921
vt 0.906455 0.203497
vt 0.414577 0.673402
vt 0.112562 0.998981
vt 0.334337 0.551164
vt 0.226034 0.458686
vt 0.264936 0.413914
vt 0.372528 0.508619
vt 0.747275 0.151824
vt 0.659242 0.037914
vt 0.703616 0.003650
vt 0.789715 0.116398
vt 0.007668 0.138443
vt 0.151769 0.123507
vt 0.152967 0.131865
vt 0.011753 0.142181
vt 0.850515 0.254886
vt 0.994420 0.271540
vt 0.990297 0.275273
vt 0.849225 0.263243
vt 0.148183 0.746811
vt 0.004422 0.728895
vt 0.008580 0.725247
vt 0.149553 0.738481
vt 0.994661 0.860162
vt 0.850739 0.876732
vt 0.849447 0.868372
vt 0.990537 0.856456
vt 0.993072 0.376230
vt 0.995259 0.328755
vt 0.997340 0.329014
vt 0.997212 0.376179
vt 0.222856 0.456006
vt 0.261753 0.411231
vt 0.004901 0.181946
vt 0.002847 0.181187
vt 0.003507 0.138829
vt 0.993053 0.751448
vt 0.997196 0.751500
vt 0.008054 0.245755
vt 0.006543 0.626408
vt 0.002412 0.626447
vt 0.003910 0.245666
vt 0.004331 0.669125
vt 0.002254 0.668894
vt 0.656790 0.034520
vt 0.701177 0.000271
vt 0.996930 0.816210
vt 0.998996 0.816957
vt 0.998818 0.859742
vt 0.984723 0.751469
vt 0.942205 0.752849
vt 0.942209 0.374686
vt 0.984752 0.376204
vt 0.006381 0.198297
vt 0.004301 0.198516
vt 0.306080 0.569484
vt 0.996924 0.312232
vt 0.998583 0.271936
vt 0.998984 0.311472
vt 0.002557 0.685346
vt 0.000271 0.728423
vt 0.000488 0.686059
vt 0.000271 0.909107
vt 0.718544 0.173271
vt 0.995256 0.799728
vt 0.997335 0.799467
vt 0.013598 0.189169
vt 0.014653 0.193563
vt 0.156983 0.179733
vt 0.156207 0.183858
vt 0.166209 0.189179
vt 0.835629 0.317756
vt 0.844874 0.308278
vt 0.845611 0.312468
vt 0.988147 0.319467
vt 0.987037 0.323929
vt 0.012539 0.673939
vt 0.011398 0.678315
vt 0.153829 0.686579
vt 0.154546 0.690709
vt 0.164088 0.681660
vt 0.835459 0.810793
vt 0.845603 0.815911
vt 0.844860 0.820097
vt 0.987032 0.804552
vt 0.988137 0.809022
vt 0.160892 0.236469
vt 0.840281 0.762481
vt 0.169205 0.235023
vt 0.161191 0.131210
vt 0.166271 0.172010
vt 0.832009 0.363494
vt 0.840312 0.365092
vt 0.835591 0.300502
vt 0.841008 0.262485
vt 0.163478 0.698793
vt 0.157761 0.739304
vt 0.167294 0.640361
vt 0.158992 0.638771
vt 0.831976 0.764074
vt 0.841226 0.869115
vt 0.835746 0.828043
vt 0.820460 0.089798
vt 0.829874 0.528502
vt 0.688654 0.529018
vt 0.733156 0.998536
vt 0.690368 0.998692
vt 0.162567 0.246467
vt 0.063571 0.247740
vt 0.160163 0.628818
vt 0.061132 0.626019
vn 0.972692 -0.017519 0.231438
vn 0.981870 0.024570 0.187956
vn 0.994841 -0.002533 0.101419
vn -0.998057 0.016267 -0.060155
vn -0.992620 0.016757 -0.120106
vn -0.995317 -0.033239 -0.090772
vn -0.995303 -0.033665 -0.090771
vn -0.998093 0.016268 -0.059546
vn -0.992679 0.016757 -0.119617
vn -0.992620 0.016757 -0.120106
vn -0.998057 0.016267 -0.060155
vn 0.090552 0.008332 -0.995857
vn 0.090552 0.008332 -0.995857
vn 0.090552 0.008332 -0.995857
vn 0.090552 0.008332 -0.995857
vn 0.999769 0.021486 -0.000610
vn 0.998442 -0.054787 -0.010591
vn 0.999226 -0.015352 -0.036230
vn 0.999244 -0.015322 -0.035740
vn -0.042699 -0.003784 0.999081
vn -0.042699 -0.003784 0.999081
vn -0.233635 -0.000549 0.972324
vn -0.233203 -0.000580 0.972428
vn -0.993689 0.067234 -0.089789
vn -0.998093 0.016268 -0.059546
vn -0.985957 0.157759 0.054783
vn 0.995769 -0.016511 0.090400
vn 0.995769 -0.016511 0.090400
vn 0.995769 -0.016511 0.090400
vn 0.995769 -0.016511 0.090400
vn 0.972739 -0.017581 0.231235
vn 0.978349 -0.064916 0.196519
vn 0.981870 0.024570 0.187956
vn 0.972692 -0.017519 0.231438
vn -0.090552 -0.008332 0.995857
vn -0.090552 -0.008332 0.995857
vn -0.090552 -0.008332 0.995857
vn -0.090552 -0.008332 0.995857
vn -0.015687 -0.999829 -0.009797
vn -0.015687 -0.999829 -0.009797
vn -0.015687 -0.999829 -0.009797
vn -0.015687 -0.999829 -0.009797
vn 0.090552 0.008332 -0.995857
vn 0.090552 0.008332 -0.995857
vn 0.090552 0.008332 -0.995857
vn 0.090552 0.008332 -0.995857
vn 0.015687 0.999829 0.009797
vn 0.015687 0.999829 0.009797
vn 0.015687 0.999829 0.009797
vn 0.015687 0.999829 0.009797
vn -0.015687 -0.999829 -0.009797
vn -0.057045 -0.998266 -0.014498
vn -0.054725 -0.998425 -0.012361
vn -0.015687 -0.999829 -0.009797
vn 0.015687 0.999829 0.009797
vn -0.028445 0.999572 0.006775
vn -0.027865 0.999600 0.004822
vn 0.015687 0.999829 0.009797
vn 0.090552 0.008301 -0.995857
vn 0.947266 0.070656 -0.312561
vn 0.057835 -0.983171 -0.173292
vn 0.090552 0.008301 -0.995857
vn 0.872498 0.064432 0.484351
vn -0.090552 -0.008332 0.995857
vn -0.090552 -0.008332 0.995857
vn 0.026125 -0.984270 0.174727
vn 0.913990 -0.108992 -0.390824
vn 0.090552 0.008332 -0.995857
vn 0.090552 0.008332 -0.995857
vn 0.088111 0.984143 -0.153942
vn -0.090552 -0.008332 0.995857
vn 0.830275 -0.116932 0.544950
vn 0.057961 0.981521 0.182368
vn -0.090552 -0.008332 0.995857
vn -0.851262 0.020692 -0.524333
vn -0.946186 -0.149640 -0.286951
vn -0.963927 -0.110945 -0.241943
vn -0.992620 0.016757 -0.120106
vn -0.054725 -0.998425 -0.012361
vn -0.057045 -0.998266 -0.014498
vn -0.995303 -0.033665 -0.090771
vn -0.995317 -0.033239 -0.090772
vn -0.057045 -0.998266 -0.014498
vn -0.981793 -0.159598 0.103011
vn -0.992153 -0.113627 0.052159
vn -0.995303 -0.033665 -0.090771
vn -0.851312 0.016359 -0.524405
vn -0.851262 0.020692 -0.524333
vn -0.992620 0.016757 -0.120106
vn -0.992679 0.016757 -0.119617
vn -0.931919 0.013185 0.362427
vn -0.931982 0.008882 0.362396
vn -0.998093 0.016268 -0.059546
vn -0.998057 0.016267 -0.060155
vn -0.931982 0.008882 0.362396
vn -0.975538 0.197561 0.096415
vn -0.985957 0.157759 0.054783
vn -0.998093 0.016268 -0.059546
vn -0.027865 0.999600 0.004822
vn -0.028445 0.999572 0.006775
vn -0.993654 0.067851 -0.089706
vn -0.993689 0.067234 -0.089789
vn -0.028445 0.999572 0.006775
vn -0.941263 0.191122 -0.278381
vn -0.962875 0.144059 -0.228296
vn -0.993654 0.067851 -0.089706
vn -0.101755 0.011353 -0.994745
vn 0.090552 0.008332 -0.995857
vn 0.090552 0.008332 -0.995857
vn -0.101419 0.011353 -0.994779
vn -0.931982 0.008882 0.362396
vn -0.931919 0.013185 0.362427
vn -0.233203 -0.000580 0.972428
vn -0.233635 -0.000549 0.972324
vn 0.997280 -0.016329 0.071879
vn 0.997280 -0.016329 0.071879
vn 0.997280 -0.016329 0.071879
vn 0.997280 -0.016329 0.071879
vn -0.851262 0.020692 -0.524333
vn -0.851312 0.016359 -0.524405
vn -0.101755 0.011353 -0.994745
vn -0.101419 0.011353 -0.994779
vn -0.981793 -0.159598 0.103011
vn -0.931919 0.013185 0.362427
vn -0.998057 0.016267 -0.060155
vn -0.992153 -0.113627 0.052159
vn 0.996864 -0.002869 0.079077
vn 0.999769 0.021486 -0.000610
vn 0.999244 -0.015322 -0.035740
vn 0.947266 0.070656 -0.312561
vn 0.999769 0.021486 -0.000610
vn 0.996864 -0.002869 0.079077
vn -0.946186 -0.149640 -0.286951
vn -0.054725 -0.998425 -0.012361
vn -0.995317 -0.033239 -0.090772
vn -0.963927 -0.110945 -0.241943
vn -0.975538 0.197561 0.096415
vn -0.027865 0.999600 0.004822
vn -0.993689 0.067234 -0.089789
vn -0.985957 0.157759 0.054783
vn 0.996595 -0.029148 0.077129
vn 0.999226 -0.015352 -0.036230
vn 0.998442 -0.054787 -0.010591
vn 0.830275 -0.116932 0.544950
vn 0.978349 -0.064916 0.196519
vn 0.994212 -0.029789 0.103224
vn 0.994212 -0.029789 0.103224
vn 0.978349 -0.064916 0.196519
vn 0.972739 -0.017581 0.231235
vn -0.941263 0.191122 -0.278381
vn -0.851312 0.016359 -0.524405
vn -0.992679 0.016757 -0.119617
vn -0.962875 0.144059 -0.228296
vn -0.981793 -0.159598 0.103011
vn -0.055763 -0.997502 0.043371
vn -0.152398 -0.097641 0.983484
vn -0.152398 -0.097641 0.983484
vn -0.055763 -0.997502 0.043371
vn 0.016480 -0.998584 0.050572
vn -0.049903 -0.070139 0.996288
vn 0.996864 -0.002869 0.079077
vn -0.049903 -0.070139 0.996288
vn 0.016480 -0.998584 0.050572
vn 0.994841 -0.002533 0.101419
vn 0.027592 -0.997388 -0.066751
vn 0.129926 -0.053319 -0.990089
vn 0.129926 -0.053319 -0.990089
vn 0.027592 -0.997388 -0.066751
vn -0.045081 -0.996332 -0.072734
vn 0.027561 -0.080791 -0.996350
vn -0.946186 -0.149640 -0.286951
vn 0.027561 -0.080791 -0.996350
vn -0.045081 -0.996332 -0.072734
vn -0.975538 0.197561 0.096415
vn -0.153527 0.055764 0.986570
vn -0.024263 0.997715 0.063053
vn -0.024263 0.997715 0.063053
vn -0.153527 0.055764 0.986570
vn -0.063085 0.011140 0.997946
vn 0.046850 0.996434 0.070169
vn 0.996595 -0.029148 0.077129
vn 0.046850 0.996434 0.070169
vn -0.063085 0.011140 0.997946
vn 0.994212 -0.029789 0.103224
vn 0.133229 0.067729 -0.988768
vn 0.057777 0.997387 -0.043371
vn 0.057777 0.997387 -0.043371
vn 0.133229 0.067729 -0.988768
vn 0.030765 0.097635 -0.994747
vn -0.014069 0.998688 -0.049230
vn -0.941263 0.191122 -0.278381
vn -0.014069 0.998688 -0.049230
vn 0.030765 0.097635 -0.994747
vn -0.022340 -0.009431 0.999706
vn -0.152398 -0.097641 0.983484
vn -0.049903 -0.070139 0.996288
vn 0.027561 -0.080791 -0.996350
vn 0.026125 -0.984270 0.174727
vn -0.069315 -0.997506 -0.013338
vn -0.045081 -0.996332 -0.072734
vn 0.027592 -0.997388 -0.066751
vn 0.088111 0.984143 -0.153942
vn -0.037756 0.999280 0.003662
vn -0.024263 0.997715 0.063053
vn 0.046850 0.996434 0.070169
vn 0.133229 0.067729 -0.988768
vn 0.158612 0.007172 -0.987315
vn 0.030765 0.097635 -0.994747
vn -0.153527 0.055764 0.986570
vn -0.055763 -0.997502 0.043371
vn -0.069284 -0.997471 -0.015871
vn 0.057835 -0.983171 -0.173292
vn 0.016480 -0.998584 0.050572
vn -0.014069 0.998688 -0.049230
vn -0.038061 0.999257 0.006104
vn 0.057961 0.981521 0.182368
vn 0.057777 0.997387 -0.043371
vn -0.931919 0.013185 0.362427
vn -0.981793 -0.159598 0.103011
vn -0.152398 -0.097641 0.983484
vn -0.415259 0.004364 0.909693
vn -0.049903 -0.070139 0.996288
vn 0.996864 -0.002869 0.079077
vn 0.999244 -0.015322 -0.035740
vn -0.022340 -0.009431 0.999706
vn -0.055763 -0.997502 0.043371
vn -0.981793 -0.159598 0.103011
vn -0.057045 -0.998266 -0.014498
vn -0.069284 -0.997471 -0.015871
vn 0.947266 0.070656 -0.312561
vn 0.996864 -0.002869 0.079077
vn 0.016480 -0.998584 0.050572
vn 0.057835 -0.983171 -0.173292
vn 0.972692 -0.017519 0.231438
vn 0.994841 -0.002533 0.101419
vn 0.129926 -0.053319 -0.990089
vn 0.157738 0.007173 -0.987455
vn 0.027561 -0.080791 -0.996350
vn -0.946186 -0.149640 -0.286951
vn -0.851262 0.020692 -0.524333
vn -0.245336 0.020236 -0.969227
vn -0.054725 -0.998425 -0.012361
vn -0.946186 -0.149640 -0.286951
vn -0.045081 -0.996332 -0.072734
vn -0.069315 -0.997506 -0.013338
vn 0.027592 -0.997388 -0.066751
vn 0.994841 -0.002533 0.101419
vn 0.872498 0.064432 0.484351
vn 0.026125 -0.984270 0.174727
vn -0.027865 0.999600 0.004822
vn -0.975538 0.197561 0.096415
vn -0.024263 0.997715 0.063053
vn -0.037756 0.999280 0.003662
vn 0.046850 0.996434 0.070169
vn 0.996595 -0.029148 0.077129
vn 0.913990 -0.108992 -0.390824
vn 0.088111 0.984143 -0.153942
vn -0.153527 0.055764 0.986570
vn -0.975538 0.197561 0.096415
vn -0.931982 0.008882 0.362396
vn -0.335297 -0.011628 0.942041
vn 0.999226 -0.015352 -0.036230
vn 0.996595 -0.029148 0.077129
vn -0.063085 0.011140 0.997946
vn -0.039404 -0.059120 0.997473
vn 0.133229 0.067729 -0.988768
vn 0.994212 -0.029789 0.103224
vn 0.972739 -0.017581 0.231235
vn 0.158612 0.007172 -0.987315
vn -0.851312 0.016359 -0.524405
vn -0.941263 0.191122 -0.278381
vn 0.030765 0.097635 -0.994747
vn -0.245502 0.006592 -0.969374
vn -0.014069 0.998688 -0.049230
vn -0.941263 0.191122 -0.278381
vn -0.028445 0.999572 0.006775
vn -0.038061 0.999257 0.006104
vn 0.830275 -0.116932 0.544950
vn 0.994212 -0.029789 0.103224
vn 0.057777 0.997387 -0.043371
vn 0.057961 0.981521 0.182368
vn 0.872498 0.064432 0.484351
vn 0.981870 0.024570 0.187956
vn 0.999769 0.021486 -0.000610
vn 0.947266 0.070656 -0.312561
vn 0.994841 -0.002533 0.101419
vn 0.981870 0.024570 0.187956
vn 0.872498 0.064432 0.484351
vn 0.913990 -0.108992 -0.390824
vn 0.998442 -0.054787 -0.010591
vn 0.978349 -0.064916 0.196519
vn 0.830275 -0.116932 0.544950
vn 0.996595 -0.029148 0.077129
vn 0.998442 -0.054787 -0.010591
vn 0.913990 -0.108992 -0.390824
vn -0.998057 0.016267 -0.060155
vn -0.995303 -0.033665 -0.090771
vn -0.992153 -0.113627 0.052159
vn -0.995317 -0.033239 -0.090772
vn -0.992620 0.016757 -0.120106
vn -0.963927 -0.110945 -0.241943
vn -0.993654 0.067851 -0.089706
vn -0.992679 0.016757 -0.119617
vn -0.998093 0.016268 -0.059546
vn -0.993689 0.067234 -0.089789
vn -0.962875 0.144059 -0.228296
vn -0.992679 0.016757 -0.119617
vn -0.993654 0.067851 -0.089706
vn -0.039404 -0.059120 0.997473
vn -0.063085 0.011140 0.997946
vn 0.157738 0.007173 -0.987455
vn 0.129926 -0.053319 -0.990089
vn 0.015687 0.999829 0.009797
vn 0.015687 0.999829 0.009797
vn 0.015687 0.999829 0.009797
vn 0.015687 0.999829 0.009797
vn 0.015687 0.999829 0.009797
vn 0.015687 0.999829 0.009797
vn 0.015687 0.999829 0.009797
vn 0.015687 0.999829 0.009797
vn -0.015779 -0.999873 -0.002381
vn -0.015779 -0.999873 -0.002381
vn -0.015779 -0.999873 -0.002381
vn -0.015779 -0.999873 -0.002381
vn -0.014680 -0.999892 -0.000885
vn -0.014680 -0.999892 -0.000885
vn -0.014680 -0.999892 -0.000885
vn -0.014680 -0.999892 -0.000885
vn 0.993447 -0.017214 0.112991
vn 0.993447 -0.017214 0.112991
vn 0.993447 -0.017214 0.112991
vn 0.993447 -0.017214 0.112991
vn -0.098365 -0.006104 0.995132
vn -0.098365 -0.006104 0.995132
vn -0.098365 -0.006104 0.995132
vn -0.098365 -0.006104 0.995132
s off
g box_low
usemtl initialShadingGroup
f 3/1/1 11/2/2 66/3/3
f 41/4/4 42/5/5 44/6/6 45/7/7
f 47/8/8 48/9/9 42/5/10 41/4/11
f 55/10/12 56/11/13 7/12/14 3/13/15
f 9/14/16 10/15/17 8/16/18 4/17/19
s 1
f 57/18/20 54/19/21 35/20/22 26/21/23
s off
f 51/22/24 47/8/25 50/23/26
f 13/24/27 14/25/28 15/26/29 16/27/30
f 7/28/31 12/29/32 11/2/33 3/1/34
f 11/2/35 12/29/36 14/30/37 13/31/38
f 12/29/39 10/32/40 15/33/41 14/30/42
f 10/15/43 9/14/44 16/34/45 15/35/46
f 9/14/47 11/2/48 13/31/49 16/34/50
f 17/36/51 18/37/52 20/38/53 19/39/54
f 23/40/55 24/41/56 22/42/57 21/43/58
f 18/44/59 17/45/60 28/46/61 27/47/62
f 19/48/63 20/49/64 32/50/65 31/51/66
f 21/52/67 22/53/68 34/54/69 33/55/70
f 24/56/71 23/57/72 40/58/73 39/59/74
f 2/60/75 69/61/76 43/62/77 42/63/78
f 20/38/79 18/37/80 45/64/81 44/65/82
f 18/44/83 60/66/84 46/67/85 45/68/86
f 6/69/87 2/60/88 42/63/89 48/70/90
f 1/71/91 5/72/92 47/73/93 41/74/94
f 5/72/95 72/75/96 50/76/97 47/73/98
f 22/42/99 24/41/100 52/77/101 51/78/102
f 24/56/103 81/79/104 49/80/105 52/81/106
s 2
f 38/82/107 58/83/108 59/84/109 29/85/110
s off
f 5/72/111 1/71/112 26/21/113 35/20/114
f 56/11/115 55/10/116 59/84/117 58/83/118
f 2/60/119 6/69/120 38/82/121 29/85/122
f 60/86/123 1/71/124 41/74/125 46/87/126
f 63/88/127 9/14/128 4/17/129
f 17/36/130 9/14/131 63/88/132
f 69/89/133 20/49/134 44/90/135 43/91/136
f 72/92/137 22/53/138 51/93/139 50/94/140
f 75/95/141 8/16/142 10/15/143
f 23/40/144 12/29/145 78/96/146
f 78/96/147 12/29/148 7/28/149
f 81/97/150 6/69/151 48/70/152 49/98/153
f 60/86/154 62/99/155 61/100/156
f 61/100/157 62/99/158 65/101/159 64/102/160
f 63/103/161 64/102/162 65/101/163
f 66/104/164 68/105/165 67/106/166
f 67/106/167 68/105/168 71/107/169 70/108/170
f 69/61/171 70/108/172 71/107/173
f 72/75/174 74/109/175 73/110/176
f 73/110/177 74/109/178 77/111/179 76/112/180
f 75/113/181 76/112/182 77/111/183
f 78/114/184 79/115/185 80/116/186
f 80/116/187 79/115/188 82/117/189 83/118/190
f 81/97/191 83/118/192 82/117/193
s 1
f 25/119/194 57/18/20 61/100/195 64/102/196
s 2
f 29/85/110 59/84/109 70/108/197
s off
f 31/51/198 32/50/199 71/107/200 68/105/201
f 33/55/202 34/54/203 73/110/204 76/112/205
s 2
f 79/115/206 37/120/207 58/83/108 82/117/208
s 1
f 74/109/209 35/20/22 54/19/21
s off
f 62/99/210 27/47/211 28/46/212 65/101/213
f 83/118/214 39/59/215 40/58/216 80/116/217
f 1/71/218 60/86/219 61/100/220 26/21/221
f 64/102/222 63/103/223 4/121/224 25/119/225
f 62/99/226 60/66/227 18/44/228 27/47/229
f 17/122/230 63/123/231 65/101/232 28/46/233
f 3/124/234 66/104/235 67/106/236 30/125/237
f 70/108/238 69/61/239 2/60/240 29/85/241
f 20/49/242 69/89/243 71/107/244 32/50/245
f 68/105/246 66/126/247 19/127/248 31/51/249
f 22/53/250 72/92/251 73/110/252 34/54/253
f 76/112/254 75/128/255 21/129/256 33/55/257
f 74/109/258 72/75/259 5/72/260 35/20/261
f 8/130/262 75/113/263 77/111/264 36/131/265
f 79/115/266 78/114/267 7/132/268 37/120/269
f 6/69/270 81/97/271 82/117/272 38/82/273
f 83/118/274 81/79/275 24/56/276 39/59/277
f 23/133/278 78/134/279 80/116/280 40/58/281
f 19/39/282 11/2/283 9/14/284 17/36/285
f 66/3/286 11/2/287 19/39/288
f 21/43/289 10/32/290 12/29/291 23/40/292
f 75/135/293 10/32/294 21/43/295
f 41/4/296 45/7/297 46/136/298
f 44/6/299 42/5/300 43/137/301
f 52/138/302 48/9/303 47/8/304 51/22/305
f 49/139/306 48/9/307 52/138/308
s 2
f 82/117/208 58/83/108 38/82/107
s 1
f 74/109/209 54/19/21 36/131/309 77/111/310
f 61/100/195 57/18/20 26/21/23
s 2
f 70/108/197 59/84/109 30/125/311 67/106/312
s off
f 4/140/313 53/141/314 57/18/315 25/119/316
f 55/10/317 3/13/318 30/125/319 59/84/320
f 7/12/321 56/11/322 58/83/323 37/120/324
f 8/142/325 36/131/326 54/19/327 84/143/328
f 57/18/329 53/141/330 84/143/331 54/19/332
f 4/140/333 8/142/334 84/143/335 53/141/336
