# This file uses centimeters as units for non-parametric coordinates.

mtllib rock.mtl
g default
v -4.927324 -1.278476 10.918380
v -1.690500 -1.074679 11.209941
v -1.665785 -0.665370 10.918380
v -5.071502 -0.734143 10.918380
v 1.690500 -0.923748 10.471103
v 1.690500 -0.665370 11.061077
v 4.535421 -1.091920 10.918380
v 5.071503 0.000002 10.918380
v -1.690500 0.201451 10.443578
v -4.538447 -0.308759 10.604810
v 1.690500 0.201451 10.443578
v 3.868910 2.442740 10.200678
v -1.690500 1.365329 8.228460
v -4.538447 -0.308759 8.228460
v 1.690500 1.365329 8.228460
v 3.868910 3.589459 8.228460
v -1.690500 1.387506 5.879238
v -4.598307 -0.308759 5.870960
v 1.690500 1.387506 5.879238
v 3.868910 2.754756 6.008533
v -1.690500 0.000002 4.923457
v -5.071502 -0.734143 5.538539
v 1.690500 0.000002 4.923457
v 5.071503 0.000002 5.538539
v -1.690500 -0.798394 5.354879
v -4.721598 -1.207350 5.942523
v 1.690500 -0.798394 5.534874
v 4.740232 -0.798394 5.998298
v -4.035142 -1.209179 6.666709
v -1.345045 -1.284815 5.864130
v -1.690500 -1.680545 8.228460
v -3.635389 -1.365329 8.228460
v 1.345047 -0.961341 6.089075
v 1.690500 -1.680545 8.228460
v 4.035142 -1.365329 6.467188
v 4.035142 -1.103757 8.228460
v -1.345045 -1.394562 10.368696
v -4.035142 -1.556768 10.112539
v 1.345047 -1.113204 9.643129
v 3.859539 -1.229137 10.136282
v 5.949429 -0.276290 8.228460
v 5.449174 1.257361 8.228460
v -5.298241 -1.103237 8.228460
v -5.071502 -0.734143 8.228460
vt 0.506221 0.058915
vt 0.508452 0.219111
vt 0.490587 0.222790
vt 0.480019 0.053964
vt 0.521537 0.385078
vt 0.498270 0.388490
vt 0.563433 0.516946
vt 0.524416 0.555702
vt 0.442435 0.225084
vt 0.455952 0.081805
vt 0.446392 0.396143
vt 0.386788 0.547595
vt 0.323837 0.230696
vt 0.339379 0.069957
vt 0.313870 0.395662
vt 0.288227 0.531708
vt 0.215455 0.222015
vt 0.220376 0.058514
vt 0.186480 0.386838
vt 0.185811 0.522365
vt 0.142833 0.195681
vt 0.198583 0.030624
vt 0.105312 0.357477
vt 0.039506 0.511477
vt 0.103865 0.177670
vt 0.161642 0.029826
vt 0.057039 0.342696
vt 0.000458 0.483731
vt 0.735885 0.057581
vt 0.784780 0.187152
vt 0.665916 0.180213
vt 0.659422 0.083449
vt 0.788185 0.321361
vt 0.679267 0.345960
vt 0.774278 0.453828
vt 0.689726 0.463591
vt 0.561532 0.205115
vt 0.565016 0.071837
vt 0.604342 0.337101
vt 0.595139 0.463364
vt 0.278134 0.729421
vt 0.146405 0.723684
vt 0.135743 0.679043
vt 0.282261 0.655459
vt 0.436347 0.749537
vt 0.425371 0.694957
vt 0.229392 0.000458
vt 0.343443 0.018431
vt 0.341561 0.035993
vt 0.208709 0.025480
vt 0.477358 0.023098
vt 0.474410 0.049208
vt 0.515819 0.192263
vt 0.521078 0.030038
vt 0.564108 0.357674
vt 0.559494 0.500777
vt 0.700453 0.567009
vt 0.806113 0.490169
vt 0.816896 0.336206
vt 0.816250 0.167979
vt 0.767822 0.021149
vt 0.653281 0.000458
vn -0.427229 -0.689398 0.584983
vn 0.051070 -0.733867 0.677370
vn -0.012024 0.370995 0.928557
vn -0.555476 0.547038 0.626255
vn 0.029026 -0.822132 0.568557
vn -0.039159 0.146994 0.988362
vn 0.505228 -0.719705 0.476202
vn 0.499211 0.268193 0.823930
vn -0.153854 0.865867 0.476029
vn -0.328004 0.853539 0.404825
vn -0.144037 0.639729 0.754983
vn 0.073950 0.826812 0.557597
vn -0.199215 0.962136 0.186030
vn -0.471997 0.876325 0.096298
vn -0.359360 0.904564 0.229399
vn 0.150587 0.987026 0.055700
vn -0.216267 0.937433 -0.272852
vn -0.487622 0.819580 -0.300856
vn -0.137680 0.772302 -0.620156
vn 0.217555 0.879893 -0.422443
vn -0.112385 0.275894 -0.954595
vn -0.480491 0.004303 -0.876989
vn 0.046908 0.118142 -0.991888
vn 0.573636 0.151085 -0.805056
vn -0.003754 -0.690522 -0.723302
vn -0.294297 -0.819679 -0.491442
vn 0.070660 -0.673933 -0.735405
vn 0.531584 -0.691522 -0.489097
vn -0.092873 -0.986321 -0.136181
vn 0.012818 -0.962548 -0.270806
vn 0.008423 -0.999042 -0.042942
vn -0.109477 -0.992190 -0.059790
vn 0.054970 -0.948342 -0.312452
vn 0.064763 -0.997663 -0.021760
vn 0.188965 -0.970096 -0.152338
vn 0.236320 -0.971650 -0.007050
vn 0.049718 -0.974611 0.218314
vn -0.091773 -0.993114 0.072820
vn 0.069434 -0.973255 0.218982
vn 0.178876 -0.981118 0.073553
vn 0.932488 -0.360781 0.017428
vn 0.894677 0.446423 0.016116
vn -0.559754 -0.827224 -0.048745
vn -0.870030 0.492988 -0.003296
s 1
g Big_low
usemtl initialShadingGroup
f 1/1/1 2/2/2 3/3/3 4/4/4
f 2/2/2 5/5/5 6/6/6 3/3/3
f 5/5/5 7/7/7 8/8/8 6/6/6
f 4/4/4 3/3/3 9/9/9 10/10/10
f 3/3/3 6/6/6 11/11/11 9/9/9
f 6/6/6 8/8/8 12/12/12 11/11/11
f 10/10/10 9/9/9 13/13/13 14/14/14
f 9/9/9 11/11/11 15/15/15 13/13/13
f 11/11/11 12/12/12 16/16/16 15/15/15
f 14/14/14 13/13/13 17/17/17 18/18/18
f 13/13/13 15/15/15 19/19/19 17/17/17
f 15/15/15 16/16/16 20/20/20 19/19/19
f 18/18/18 17/17/17 21/21/21 22/22/22
f 17/17/17 19/19/19 23/23/23 21/21/21
f 19/19/19 20/20/20 24/24/24 23/23/23
f 22/22/22 21/21/21 25/25/25 26/26/26
f 21/21/21 23/23/23 27/27/27 25/25/25
f 23/23/23 24/24/24 28/28/28 27/27/27
f 29/29/29 30/30/30 31/31/31 32/32/32
f 30/30/30 33/33/33 34/34/34 31/31/31
f 33/33/33 35/35/35 36/36/36 34/34/34
f 32/32/32 31/31/31 37/37/37 38/38/38
f 31/31/31 34/34/34 39/39/39 37/37/37
f 34/34/34 36/36/36 40/40/40 39/39/39
f 41/41/41 28/42/28 24/43/24 42/44/42
f 7/45/7 41/41/41 42/44/42 8/46/8
f 42/44/42 24/43/24 20/20/20 16/16/16
f 8/46/8 42/44/42 16/16/16 12/12/12
f 26/47/26 43/48/43 44/49/44 22/50/22
f 43/48/43 1/51/1 4/52/4 44/49/44
f 22/50/22 44/49/44 14/14/14 18/18/18
f 44/49/44 4/52/4 10/10/10 14/14/14
f 38/38/38 37/37/37 2/53/2 1/54/1
f 37/37/37 39/39/39 5/55/5 2/53/2
f 39/39/39 40/40/40 7/56/7 5/55/5
f 40/40/40 36/36/36 41/57/41 7/56/7
f 36/36/36 35/35/35 28/58/28 41/57/41
f 27/59/27 28/58/28 35/35/35 33/33/33
f 25/60/25 27/59/27 33/33/33 30/30/30
f 26/61/26 25/60/25 30/30/30 29/29/29
f 29/29/29 32/32/32 43/62/43 26/61/26
f 32/32/32 38/38/38 1/54/1 43/62/43
g default
v -1.228716 3.304819 3.671335
v -0.957733 3.125123 3.671335
v 0.000000 3.356289 4.058981
v 0.957733 2.940568 4.070157
v 1.365320 2.940568 3.734636
v -1.445142 3.804133 4.141683
v -0.957733 3.804133 4.394997
v 0.000000 3.804133 4.405210
v 0.957733 3.804133 4.141683
v 1.915466 3.804133 3.715466
v -1.739393 4.667705 3.876352
v -0.957733 4.667705 4.498911
v 0.000000 4.667705 4.598793
v 0.957733 4.667705 4.598793
v 1.915466 4.667705 4.233438
v -1.523025 5.531272 3.652786
v -0.957733 5.725216 4.141683
v 0.000000 5.092026 4.141683
v 0.957733 5.171882 3.731941
v 1.506967 5.035565 3.731941
v -1.915467 5.531272 3.278116
v -0.957733 6.286963 3.278116
v 0.000000 5.411720 3.278116
v 0.957733 5.531272 3.278116
v 1.506967 5.035565 3.278116
v -1.915467 5.531272 2.414546
v -0.957733 6.046022 2.414546
v 0.000000 5.531272 2.414546
v 0.957733 5.531272 2.414546
v 1.506967 5.035565 2.414546
v -1.915467 5.195352 2.010411
v -0.957733 5.754582 2.184849
v 0.000000 5.265819 2.184849
v 0.957733 5.284432 2.104197
v 1.506967 5.035565 2.104197
v -1.915467 4.667704 2.010411
v -0.957733 4.667704 1.550977
v 0.000000 4.925733 1.441437
v 0.957733 4.667704 1.550977
v 1.915466 4.667704 1.550977
v -1.311447 3.804133 1.884614
v -0.957733 3.804133 1.403739
v 0.000000 3.804133 1.461246
v 0.957733 3.804133 1.793176
v 1.915466 3.804133 1.550977
v -1.400166 3.110514 1.595109
v -0.957733 2.940568 2.042795
v 0.000000 3.318783 1.894995
v 0.957733 2.940568 1.724219
v 1.630751 3.274314 1.690657
v -1.400166 2.940568 2.414546
v -0.957733 2.940568 2.414546
v 0.000000 2.786276 2.414546
v 0.957733 2.940568 2.414546
v 1.365320 2.940568 2.414546
v -1.400166 2.940568 3.278116
v -0.957733 2.839519 3.278116
v 0.000000 2.685228 3.278116
v 0.501481 2.771465 3.278116
v 1.273851 2.940568 3.278116
v 1.806028 3.804133 2.414546
v 2.046744 3.804133 3.278116
v 2.347112 4.667705 2.414546
v 2.347112 4.667705 3.012640
v -1.915467 3.804133 2.414546
v -1.915467 3.804133 3.278116
v -2.241096 4.667705 2.414546
v -2.241096 4.667705 3.278116
vt 0.628685 0.779167
vt 0.624311 0.761697
vt 0.672463 0.761969
vt 0.665488 0.787752
vt 0.647958 0.713718
vt 0.675411 0.715029
vt 0.633985 0.665820
vt 0.673878 0.665618
vt 0.622946 0.643954
vt 0.667289 0.613371
vt 0.714639 0.765987
vt 0.704769 0.815066
vt 0.718959 0.717332
vt 0.721827 0.669499
vt 0.717259 0.618626
vt 0.943019 0.937696
vt 0.909509 0.977372
vt 0.870004 0.934860
vt 0.905861 0.912803
vt 0.841268 0.982606
vt 0.798270 0.964210
vt 0.808139 0.936149
vt 0.751384 0.951904
vt 0.764135 0.904549
vt 0.707891 0.922486
vt 0.736109 0.899175
vt 0.871410 0.889619
vt 0.923592 0.892395
vt 0.814889 0.889355
vt 0.771514 0.879373
vt 0.737317 0.876576
vt 0.873202 0.853083
vt 0.923704 0.849704
vt 0.822818 0.843664
vt 0.777500 0.839165
vt 0.743094 0.832841
vt 0.874784 0.840181
vt 0.930085 0.824732
vt 0.824293 0.824244
vt 0.776454 0.821564
vt 0.746692 0.817180
vt 0.879429 0.781522
vt 0.932163 0.798319
vt 0.826808 0.784978
vt 0.774699 0.781794
vt 0.725453 0.785350
vt 0.449082 0.820122
vt 0.445697 0.767536
vt 0.487512 0.764173
vt 0.491484 0.787142
vt 0.431224 0.719076
vt 0.486951 0.717952
vt 0.443025 0.670121
vt 0.486397 0.668826
vt 0.442030 0.622166
vt 0.485163 0.619700
vt 0.538365 0.765389
vt 0.521819 0.790315
vt 0.518937 0.716042
vt 0.525004 0.667146
vt 0.514812 0.633061
vt 0.556434 0.762185
vt 0.559967 0.783635
vt 0.554999 0.714868
vt 0.554697 0.667330
vt 0.554387 0.647870
vt 0.600345 0.758787
vt 0.601335 0.778269
vt 0.597547 0.712844
vt 0.597778 0.688748
vt 0.597806 0.648785
vt 0.506771 0.602952
vt 0.549429 0.600934
vt 0.592918 0.591844
vt 0.615204 0.592894
vt 0.501410 0.562418
vt 0.546232 0.551291
vt 0.575671 0.548372
vt 0.639976 0.549145
vt 0.698524 0.826833
vt 0.694177 0.858159
vt 0.567459 0.831605
vt 0.529669 0.825210
vt 0.609910 0.825037
vt 0.654493 0.805668
vt 0.574945 0.876613
vt 0.549093 0.874326
vt 0.618102 0.869412
vt 0.653698 0.853275
vt 0.959335 0.822138
vt 0.967531 0.849274
vt 0.965959 0.898974
vn -0.555976 -0.612868 0.561501
vn -0.146901 -0.739511 0.656919
vn -0.250632 -0.361115 0.898209
vn -0.655213 -0.297849 0.694249
vn -0.060278 -0.640559 0.765539
vn 0.018496 -0.383310 0.923435
vn 0.174469 -0.603988 0.777663
vn 0.264749 -0.352622 0.897533
vn 0.561391 -0.675536 0.478008
vn 0.728794 -0.385060 0.566205
vn -0.282330 0.166193 0.944812
vn -0.719309 0.079445 0.690132
vn 0.078961 0.194517 0.977716
vn 0.245856 0.140524 0.959066
vn 0.617180 0.115305 0.778327
vn 0.026309 0.715492 0.698126
vn -0.638131 0.458232 0.618719
vn 0.231374 0.740939 0.630456
vn 0.139579 0.867630 0.477217
vn 0.372567 0.874848 0.309573
vn 0.100930 0.982346 0.157514
vn -0.763710 0.612933 0.202633
vn 0.359379 0.902980 0.235527
vn 0.221335 0.954958 0.197651
vn 0.524277 0.846865 0.089186
vn 0.016971 0.966949 -0.254404
vn -0.707725 0.661272 -0.248686
vn 0.295615 0.923046 -0.246168
vn 0.252388 0.958368 -0.133535
vn 0.519522 0.851219 -0.074318
vn -0.065161 0.623558 -0.779057
vn -0.426952 0.390721 -0.815506
vn 0.079296 0.726292 -0.682798
vn 0.151117 0.793158 -0.589969
vn 0.328808 0.852281 -0.406821
vn -0.192532 0.262701 -0.945473
vn -0.572657 0.047462 -0.818420
vn 0.087750 0.429719 -0.898689
vn 0.102119 0.242143 -0.964851
vn 0.536347 0.138970 -0.832478
vn -0.147900 -0.223071 -0.963517
vn -0.674999 -0.176907 -0.716296
vn 0.081032 -0.231376 -0.969484
vn 0.006562 -0.141888 -0.989861
vn 0.579947 -0.331163 -0.744307
vn 0.010683 -0.807710 -0.589484
vn -0.653219 -0.320811 -0.685846
vn 0.022403 -0.644008 -0.764691
vn 0.000427 -0.695863 -0.718174
vn 0.561762 -0.525807 -0.638710
vn -0.090801 -0.973115 -0.211666
vn -0.729739 -0.664882 -0.159414
vn -0.033968 -0.966523 -0.254320
vn 0.091382 -0.976670 -0.194332
vn 0.629728 -0.774768 -0.056374
vn -0.149058 -0.958961 0.241197
vn -0.673118 -0.717740 0.178214
vn -0.083474 -0.971716 0.220909
vn 0.030370 -0.987454 0.154961
vn 0.574567 -0.818191 -0.020907
vn 0.887402 -0.454505 -0.077094
vn 0.892219 -0.447773 0.058692
vn 0.959074 0.232458 -0.161677
vn 0.948754 0.310045 0.061136
vn -0.892267 -0.379474 -0.244661
vn -0.877559 -0.411479 0.246119
vn -0.971998 -0.051612 -0.229250
vn -0.957282 0.007020 0.289071
s 1
g Small_low
usemtl initialShadingGroup
f 45/63/45 46/64/46 51/65/47 50/66/48
f 46/64/46 47/67/49 52/68/50 51/65/47
f 47/67/49 48/69/51 53/70/52 52/68/50
f 48/69/51 49/71/53 54/72/54 53/70/52
f 50/66/48 51/65/47 56/73/55 55/74/56
f 51/65/47 52/68/50 57/75/57 56/73/55
f 52/68/50 53/70/52 58/76/58 57/75/57
f 53/70/52 54/72/54 59/77/59 58/76/58
f 55/78/56 56/79/55 61/80/60 60/81/61
f 56/82/55 57/83/57 62/84/62 61/80/60
f 57/83/57 58/85/58 63/86/63 62/84/62
f 58/85/58 59/87/59 64/88/64 63/86/63
f 60/81/61 61/80/60 66/89/65 65/90/66
f 61/80/60 62/84/62 67/91/67 66/89/65
f 62/84/62 63/86/63 68/92/68 67/91/67
f 63/86/63 64/88/64 69/93/69 68/92/68
f 65/90/66 66/89/65 71/94/70 70/95/71
f 66/89/65 67/91/67 72/96/72 71/94/70
f 67/91/67 68/92/68 73/97/73 72/96/72
f 68/92/68 69/93/69 74/98/74 73/97/73
f 70/95/71 71/94/70 76/99/75 75/100/76
f 71/94/70 72/96/72 77/101/77 76/99/75
f 72/96/72 73/97/73 78/102/78 77/101/77
f 73/97/73 74/98/74 79/103/79 78/102/78
f 75/100/76 76/99/75 81/104/80 80/105/81
f 76/99/75 77/101/77 82/106/82 81/104/80
f 77/101/77 78/102/78 83/107/83 82/106/82
f 78/102/78 79/103/79 84/108/84 83/107/83
f 80/109/81 81/110/80 86/111/85 85/112/86
f 81/110/80 82/113/82 87/114/87 86/111/85
f 82/113/82 83/115/83 88/116/88 87/114/87
f 83/115/83 84/117/84 89/118/89 88/116/88
f 85/112/86 86/111/85 91/119/90 90/120/91
f 86/111/85 87/114/87 92/121/92 91/119/90
f 87/114/87 88/116/88 93/122/93 92/121/92
f 88/116/88 89/118/89 94/123/94 93/122/93
f 90/120/91 91/119/90 96/124/95 95/125/96
f 91/119/90 92/121/92 97/126/97 96/124/95
f 92/121/92 93/122/93 98/127/98 97/126/97
f 93/122/93 94/123/94 99/128/99 98/127/98
f 95/125/96 96/124/95 101/129/100 100/130/101
f 96/124/95 97/126/97 102/131/102 101/129/100
f 97/126/97 98/127/98 103/132/103 102/131/102
f 98/127/98 99/128/99 104/133/104 103/132/103
f 100/130/101 101/129/100 46/64/46 45/63/45
f 101/129/100 102/131/102 47/67/49 46/64/46
f 102/131/102 103/132/103 48/69/51 47/67/49
f 103/132/103 104/133/104 49/71/53 48/69/51
f 99/128/99 94/123/94 89/134/89 105/135/105
f 104/133/104 99/128/99 105/135/105 106/136/106
f 49/71/53 104/133/104 106/136/106 54/137/54
f 105/135/105 89/134/89 84/138/84 107/139/107
f 106/136/106 105/135/105 107/139/107 108/140/108
f 54/137/54 106/136/106 108/140/108 59/141/59
f 107/142/107 84/108/84 79/103/79 74/98/74
f 108/143/108 107/142/107 74/98/74 69/93/69
f 59/87/59 108/143/108 69/93/69 64/88/64
f 90/120/91 95/125/96 109/144/109 85/145/86
f 95/125/96 100/130/101 110/146/110 109/144/109
f 100/130/101 45/63/45 50/147/48 110/146/110
f 85/145/86 109/144/109 111/148/111 80/149/81
f 109/144/109 110/146/110 112/150/112 111/148/111
f 110/146/110 50/147/48 55/151/56 112/150/112
f 80/152/81 111/153/111 70/95/71 75/100/76
f 111/153/111 112/154/112 65/90/66 70/95/71
f 112/154/112 55/78/56 60/81/61 65/90/66
g default
v 6.795313 0.621256 4.812985
v 8.498079 0.621256 4.812985
v 8.603913 0.886742 4.534927
v 7.112820 0.886742 4.534927
v 10.200842 0.621256 4.339427
v 10.095007 0.886742 4.534927
v 11.903603 0.621256 4.812985
v 11.586100 0.886742 4.534927
v 8.464733 1.806499 4.048345
v 7.112820 1.067646 3.229100
v 10.234183 2.084516 4.048345
v 11.427095 0.886742 3.229100
v 8.464733 1.195018 1.801386
v 7.112820 0.886742 1.923271
v 10.234183 1.038530 2.184541
v 11.586100 1.003315 1.923271
v 8.603913 0.886742 0.617444
v 7.112820 0.886742 0.617444
v 10.095007 0.886742 0.863331
v 11.586100 0.886742 0.617444
v 8.498079 0.621256 0.339386
v 6.795313 0.621256 0.339386
v 10.200842 0.621256 0.709426
v 11.903603 0.621256 0.339386
v 7.547805 0.413739 1.232992
v 8.613100 0.253492 0.874321
v 8.464733 0.934570 1.801386
v 7.808139 0.413739 1.931320
v 10.085817 0.568641 0.903577
v 10.234183 -0.601204 1.757914
v 11.453722 0.413739 1.216863
v 11.558535 0.413739 1.931320
v 8.464733 0.934570 3.350986
v 7.515060 0.413739 3.221055
v 10.234183 -0.234774 3.350986
v 11.214462 0.607776 3.221055
v 8.613100 0.161270 4.415812
v 7.140385 0.413739 4.510787
v 10.085817 0.528212 4.170714
v 11.383355 0.500240 4.315182
v 11.903603 0.649184 1.830588
v 11.587325 0.621256 3.321785
v 6.795313 0.621256 1.830588
v 6.795313 0.664596 3.321785
vt 0.002564 0.748302
vt 0.086409 0.727486
vt 0.093059 0.743190
vt 0.021329 0.763819
vt 0.177352 0.726043
vt 0.173257 0.737588
vt 0.264696 0.741537
vt 0.245616 0.754751
vt 0.095565 0.789584
vt 0.025898 0.828750
vt 0.171333 0.787797
vt 0.244779 0.820114
vt 0.095072 0.902705
vt 0.025716 0.896771
vt 0.184547 0.883967
vt 0.251335 0.888006
vt 0.103621 0.962018
vt 0.028991 0.962049
vt 0.179552 0.949370
vt 0.255786 0.953568
vt 0.099232 0.980995
vt 0.014149 0.981532
vt 0.185209 0.964519
vt 0.271601 0.971783
vt 0.764513 0.593729
vt 0.820657 0.578571
vt 0.807541 0.624446
vt 0.771759 0.629237
vt 0.897167 0.568683
vt 0.908961 0.623879
vt 0.968673 0.588958
vt 0.980665 0.624454
vt 0.810413 0.698733
vt 0.760790 0.696471
vt 0.909766 0.696672
vt 0.970695 0.694904
vt 0.826152 0.752934
vt 0.752893 0.762060
vt 0.901603 0.741260
vt 0.967762 0.748631
vt 0.274749 0.891075
vt 0.276958 0.965969
vt 0.259898 0.815687
vt 0.008720 0.976089
vt 0.005407 0.901724
vt 0.000796 0.825894
vt 0.000458 0.750589
vt 0.822933 0.782342
vt 0.735490 0.779254
vt 0.907391 0.750881
vt 0.991655 0.775613
vt 0.988255 0.698399
vt 0.999478 0.619441
vt 0.989411 0.544016
vt 0.902641 0.559196
vt 0.814092 0.547365
vt 0.727689 0.548505
vt 0.721916 0.624993
vt 0.723939 0.703492
vn -0.679366 -0.258860 0.686625
vn 0.074257 -0.222973 0.971992
vn -0.119313 0.573122 0.810737
vn -0.379217 0.799347 0.466090
vn 0.061136 -0.484970 0.872391
vn 0.176483 0.515988 0.838218
vn 0.517375 -0.555494 0.650961
vn 0.499613 0.684068 0.531449
vn -0.040805 0.996735 0.069678
vn -0.378484 0.924371 0.047826
vn 0.072245 0.996499 0.042089
vn 0.564323 0.815964 0.125469
vn -0.106881 0.953810 -0.280753
vn -0.381320 0.915973 -0.124858
vn 0.121936 0.963093 -0.239965
vn 0.244379 0.958563 -0.146408
vn 0.011690 0.952250 -0.305096
vn -0.209247 0.948205 -0.239005
vn 0.036107 0.957279 -0.286903
vn 0.188037 0.952821 -0.238274
vn 0.035498 -0.487543 -0.872377
vn -0.529492 -0.609432 -0.590111
vn 0.021152 -0.522045 -0.852656
vn 0.518267 -0.499801 -0.693973
vn -0.065896 -0.995534 -0.067606
vn -0.072978 -0.975912 -0.205596
vn -0.322122 -0.942439 0.089703
vn 0.123402 -0.987768 0.095321
vn 0.049169 -0.908749 -0.414438
vn -0.151591 -0.985967 0.069920
vn 0.318910 -0.849481 -0.420330
vn 0.556788 -0.830620 -0.007508
vn -0.309094 -0.948466 0.069803
vn 0.058082 -0.993417 -0.098737
vn -0.165817 -0.970581 0.174577
vn 0.413087 -0.894141 0.172834
vn -0.006593 -0.994480 0.104722
vn -0.086525 -0.987170 0.134197
vn 0.156295 -0.887505 0.433483
vn 0.190395 -0.951612 0.241214
vn 0.995414 0.000366 0.095656
vn 0.891937 -0.451401 0.026189
vn -0.681640 -0.731634 -0.008852
vn -0.940963 -0.336758 -0.034396
s 1
g Medium_low
usemtl initialShadingGroup
f 113/155/113 114/156/114 115/157/115 116/158/116
f 114/156/114 117/159/117 118/160/118 115/157/115
f 117/159/117 119/161/119 120/162/120 118/160/118
f 116/158/116 115/157/115 121/163/121 122/164/122
f 115/157/115 118/160/118 123/165/123 121/163/121
f 118/160/118 120/162/120 124/166/124 123/165/123
f 122/164/122 121/163/121 125/167/125 126/168/126
f 121/163/121 123/165/123 127/169/127 125/167/125
f 123/165/123 124/166/124 128/170/128 127/169/127
f 126/168/126 125/167/125 129/171/129 130/172/130
f 125/167/125 127/169/127 131/173/131 129/171/129
f 127/169/127 128/170/128 132/174/132 131/173/131
f 130/172/130 129/171/129 133/175/133 134/176/134
f 129/171/129 131/173/131 135/177/135 133/175/133
f 131/173/131 132/174/132 136/178/136 135/177/135
f 137/179/137 138/180/138 139/181/139 140/182/140
f 138/180/138 141/183/141 142/184/142 139/181/139
f 141/183/141 143/185/143 144/186/144 142/184/142
f 140/182/140 139/181/139 145/187/145 146/188/146
f 139/181/139 142/184/142 147/189/147 145/187/145
f 142/184/142 144/186/144 148/190/148 147/189/147
f 146/188/146 145/187/145 149/191/149 150/192/150
f 145/187/145 147/189/147 151/193/151 149/191/149
f 147/189/147 148/190/148 152/194/152 151/193/151
f 153/195/153 136/196/136 132/174/132 128/170/128
f 154/197/154 153/195/153 128/170/128 124/166/124
f 119/161/119 154/197/154 124/166/124 120/162/120
f 134/198/134 155/199/155 126/168/126 130/172/130
f 155/199/155 156/200/156 122/164/122 126/168/126
f 156/200/156 113/201/113 116/158/116 122/164/122
f 150/192/150 149/191/149 114/202/114 113/203/113
f 149/191/149 151/193/151 117/204/117 114/202/114
f 151/193/151 152/194/152 119/205/119 117/204/117
f 152/194/152 148/190/148 154/206/154 119/205/119
f 148/190/148 144/186/144 153/207/153 154/206/154
f 144/186/144 143/185/143 136/208/136 153/207/153
f 135/209/135 136/208/136 143/185/143 141/183/141
f 133/210/133 135/209/135 141/183/141 138/180/138
f 134/211/134 133/210/133 138/180/138 137/179/137
f 137/179/137 140/182/140 155/212/155 134/211/134
f 140/182/140 146/188/146 156/213/156 155/212/155
f 146/188/146 150/192/150 113/203/113 156/213/156
